{
  "accessors": [
    {
      "bufferView": 1,
      "componentType": 5126,
      "count": 18882,
      "max": [
        4.344204902648926,
        4.250062942504883,
        4.851009368896484
      ],
      "min": [
        -4.593606948852539,
        -3.56674861907959,
        -4.851009845733643
      ],
      "type": "VEC3"
    },
    {
      "bufferView": 1,
      "byteOffset": 226584,
      "componentType": 5126,
      "count": 18882,
      "max": [
        0.9999998807907104,
        0.9999399185180664,
        0.9997949600219727
      ],
      "min": [
        -0.9999998807907104,
        -0.9999397993087769,
        -0.9997943639755249
      ],
      "type": "VEC3"
    },
    {
      "bufferView": 0,
      "componentType": 5125,
      "count": 93312,
      "type": "SCALAR"
    },
    {
      "bufferView": 1,
      "byteOffset": 453168,
      "componentType": 5126,
      "count": 56,
      "max": [
        1.0000004768371582,
        1.0,
        1.0000005960464478
      ],
      "min": [
        -1.0000003576278687,
        -1.0,
        -1.0000003576278687
      ],
      "type": "VEC3"
    },
    {
      "bufferView": 1,
      "byteOffset": 453840,
      "componentType": 5126,
      "count": 56,
      "max": [
        1.0,
        1.0,
        1.0
      ],
      "min": [
        -1.0,
        -1.0,
        -1.0
      ],
      "type": "VEC3"
    },
    {
      "bufferView": 0,
      "byteOffset": 373248,
      "componentType": 5125,
      "count": 84,
      "type": "SCALAR"
    },
    {
      "bufferView": 2,
      "componentType": 5126,
      "count": 25,
      "max": [
        1.0416666269302368
      ],
      "min": [
        0.0416666679084301
      ],
      "type": "SCALAR"
    },
    {
      "bufferView": 4,
      "componentType": 5126,
      "count": 25,
      "max": [
        0.0,
        1.0,
        -0.0,
        1.0
      ],
      "min": [
        0.0,
        -0.9902044534683228,
        -0.0,
        -1.6292068494294654e-07
      ],
      "type": "VEC4"
    },
    {
      "bufferView": 2,
      "byteOffset": 100,
      "componentType": 5126,
      "count": 10,
      "max": [
        1.0416666269302368
      ],
      "min": [
        0.4166666567325592
      ],
      "type": "SCALAR"
    },
    {
      "bufferView": 3,
      "componentType": 5126,
      "count": 10,
      "max": [
        0.07153835892677307,
        0.16797830164432526,
        20.857288360595703
      ],
      "min": [
        -0.486415833234787,
        0.16797830164432526,
        20.857288360595703
      ],
      "type": "VEC3"
    }
  ],
  "animations": [
    {
      "channels": [
        {
          "sampler": 0,
          "target": {
            "node": 3,
            "path": "rotation"
          }
        }
      ],
      "name": "CircleAction",
      "samplers": [
        {
          "input": 6,
          "interpolation": "LINEAR",
          "output": 7
        }
      ]
    },
    {
      "channels": [
        {
          "sampler": 0,
          "target": {
            "node": 8,
            "path": "translation"
          }
        }
      ],
      "name": "CameraAction",
      "samplers": [
        {
          "input": 8,
          "interpolation": "LINEAR",
          "output": 9
        }
      ]
    }
  ],
  "asset": {
    "extras": {
      "author": "IsiahSlater (https://sketchfab.com/IsiahSlater)",
      "license": "CC-BY-4.0 (http://creativecommons.org/licenses/by/4.0/)",
      "source": "https://sketchfab.com/3d-models/chef-hat-cacfc7474a604ed4b0275b8a3293eff6",
      "title": "Chef Hat"
    },
    "generator": "Sketchfab-12.67.0",
    "version": "2.0"
  },
  "bufferViews": [
    {
      "buffer": 0,
      "byteLength": 373584,
      "name": "floatBufferViews",
      "target": 34963
    },
    {
      "buffer": 0,
      "byteLength": 454512,
      "byteOffset": 373584,
      "byteStride": 12,
      "name": "floatBufferViews",
      "target": 34962
    },
    {
      "buffer": 0,
      "byteLength": 140,
      "byteOffset": 828096,
      "name": "floatBufferViews"
    },
    {
      "buffer": 0,
      "byteLength": 120,
      "byteOffset": 828236,
      "byteStride": 12,
      "name": "floatBufferViews"
    },
    {
      "buffer": 0,
      "byteLength": 400,
      "byteOffset": 828356,
      "byteStride": 16,
      "name": "floatBufferViews"
    }
  ],
  "buffers": [
    {
      "byteLength": 828756,
      "uri": "scene.bin"
    }
  ],
  "materials": [
    {
      "doubleSided": true,
      "name": "Material.001"
    },
    {
      "doubleSided": true,
      "name": "Material"
    }
  ],
  "meshes": [
    {
      "name": "Object_0",
      "primitives": [
        {
          "attributes": {
            "NORMAL": 1,
            "POSITION": 0
          },
          "indices": 2,
          "material": 0,
          "mode": 4
        }
      ]
    },
    {
      "name": "Object_1",
      "primitives": [
        {
          "attributes": {
            "NORMAL": 4,
            "POSITION": 3
          },
          "indices": 5,
          "material": 1,
          "mode": 4
        }
      ]
    }
  ],
  "nodes": [
    {
      "children": [
        1
      ],
      "matrix": [
        0.080107182264328,
        0.0,
        0.0,
        0.0,
        0.0,
        1.7787367637540186e-17,
        -0.080107182264328,
        0.0,
        0.0,
        0.080107182264328,
        1.7787367637540186e-17,
        0.0,
        0.0,
        0.0,
        0.0,
        1.0
      ],
      "name": "Sketchfab_model"
    },
    {
      "children": [
        2
      ],
      "name": "root"
    },
    {
      "children": [
        3,
        5,
        7,
        8
      ],
      "matrix": [
        1.0,
        0.0,
        0.0,
        0.0,
        0.0,
        2.220446049250313e-16,
        1.0,
        0.0,
        0.0,
        -1.0,
        2.220446049250313e-16,
        0.0,
        0.0,
        0.0,
        0.0,
        1.0
      ],
      "name": "GLTF_SceneRootNode"
    },
    {
      "children": [
        4
      ],
      "name": "Hat_0"
    },
    {
      "mesh": 0,
      "name": "Object_4"
    },
    {
      "children": [
        6
      ],
      "matrix": [
        1.0,
        0.0,
        0.0,
        0.0,
        0.0,
        1.388096809387207,
        0.0,
        0.0,
        0.0,
        0.0,
        1.4385731220245361,
        0.0,
        0.0,
        0.16081568598747253,
        0.0,
        1.0
      ],
      "name": "Cube_1"
    },
    {
      "mesh": 1,
      "name": "Object_6"
    },
    {
      "name": "Lamp_2",
      "rotation": [
        0.3296913802623749,
        0.7008889317512512,
        -0.3900209963321686,
        0.4979376792907715
      ],
      "translation": [
        12.180928230285645,
        14.455257415771484,
        -1.005448341369629
      ]
    },
    {
      "name": "Camera_3",
      "rotation": [
        0.7071068286895752,
        0.0,
        0.0,
        0.7071067094802856
      ],
      "translation": [
        0.07153834402561188,
        0.16797830164432526,
        20.857288360595703
      ]
    }
  ],
  "scene": 0,
  "scenes": [
    {
      "name": "Sketchfab_Scene",
      "nodes": [
        0
      ]
    }
  ]
}
