{
  "accessors": [
    {
      "bufferView": 2,
      "componentType": 5126,
      "count": 1160,
      "max": [
        151.12353515625,
        184.38978576660156,
        65.7887954711914
      ],
      "min": [
        52.45112609863281,
        -0.8220931887626648,
        -79.8590087890625
      ],
      "type": "VEC3"
    },
    {
      "bufferView": 2,
      "byteOffset": 13920,
      "componentType": 5126,
      "count": 1160,
      "max": [
        1.0,
        1.0,
        1.0
      ],
      "min": [
        -1.0,
        -1.0,
        -1.0
      ],
      "type": "VEC3"
    },
    {
      "bufferView": 1,
      "componentType": 5126,
      "count": 1160,
      "max": [
        0.9811031222343445,
        0.990234375
      ],
      "min": [
        0.009765625,
        0.009765625
      ],
      "type": "VEC2"
    },
    {
      "bufferView": 1,
      "byteOffset": 9280,
      "componentType": 5126,
      "count": 1160,
      "max": [
        0.9811031222343445,
        0.990234375
      ],
      "min": [
        0.009765625,
        0.009765625
      ],
      "type": "VEC2"
    },
    {
      "bufferView": 0,
      "componentType": 5125,
      "count": 3102,
      "type": "SCALAR"
    },
    {
      "bufferView": 2,
      "byteOffset": 27840,
      "componentType": 5126,
      "count": 886,
      "max": [
        125.06332397460938,
        162.96640014648438,
        50.7873649597168
      ],
      "min": [
        75.99559020996094,
        136.07369995117188,
        38.50486373901367
      ],
      "type": "VEC3"
    },
    {
      "bufferView": 2,
      "byteOffset": 38472,
      "componentType": 5126,
      "count": 886,
      "max": [
        1.0,
        1.0,
        1.0
      ],
      "min": [
        -1.0,
        -1.0,
        -1.0
      ],
      "type": "VEC3"
    },
    {
      "bufferView": 1,
      "byteOffset": 18560,
      "componentType": 5126,
      "count": 886,
      "max": [
        0.9238028526306152,
        0.990234375
      ],
      "min": [
        0.009765595197677612,
        0.009765595197677612
      ],
      "type": "VEC2"
    },
    {
      "bufferView": 1,
      "byteOffset": 25648,
      "componentType": 5126,
      "count": 886,
      "max": [
        0.9238028526306152,
        0.990234375
      ],
      "min": [
        0.009765595197677612,
        0.009765595197677612
      ],
      "type": "VEC2"
    },
    {
      "bufferView": 0,
      "byteOffset": 12408,
      "componentType": 5125,
      "count": 2046,
      "type": "SCALAR"
    }
  ],
  "asset": {
    "extras": {
      "author": "Nauman Hameed (https://sketchfab.com/nauman.hameed)",
      "license": "CC-BY-4.0 (http://creativecommons.org/licenses/by/4.0/)",
      "source": "https://sketchfab.com/3d-models/ice-cream-machine-0108df87ea02416f9389b9521ad08e87",
      "title": "Ice Cream Machine"
    },
    "generator": "Sketchfab-15.25.0",
    "version": "2.0"
  },
  "bufferViews": [
    {
      "buffer": 0,
      "byteLength": 20592,
      "name": "floatBufferViews",
      "target": 34963
    },
    {
      "buffer": 0,
      "byteLength": 32736,
      "byteOffset": 20592,
      "byteStride": 8,
      "name": "floatBufferViews",
      "target": 34962
    },
    {
      "buffer": 0,
      "byteLength": 49104,
      "byteOffset": 53328,
      "byteStride": 12,
      "name": "floatBufferViews",
      "target": 34962
    }
  ],
  "buffers": [
    {
      "byteLength": 102432,
      "uri": "scene.bin"
    }
  ],
  "images": [
    {
      "uri": "textures/ICeCream_Machine_baseColor.png"
    },
    {
      "uri": "textures/Screws_baseColor.png"
    }
  ],
  "materials": [
    {
      "doubleSided": true,
      "name": "ICeCream_Machine",
      "pbrMetallicRoughness": {
        "baseColorTexture": {
          "index": 0
        },
        "metallicFactor": 0.0,
        "roughnessFactor": 0.9207483816249483
      }
    },
    {
      "doubleSided": true,
      "name": "Screws",
      "pbrMetallicRoughness": {
        "baseColorTexture": {
          "index": 1
        },
        "metallicFactor": 0.0,
        "roughnessFactor": 0.6
      }
    }
  ],
  "meshes": [
    {
      "name": "Ice_Cream_Machine1_ICeCream_Machine_0",
      "primitives": [
        {
          "attributes": {
            "NORMAL": 1,
            "POSITION": 0,
            "TEXCOORD_0": 2,
            "TEXCOORD_1": 3
          },
          "indices": 4,
          "material": 0,
          "mode": 4
        }
      ]
    },
    {
      "name": "Ice_Cream_Machine1_Screws_0",
      "primitives": [
        {
          "attributes": {
            "NORMAL": 6,
            "POSITION": 5,
            "TEXCOORD_0": 7,
            "TEXCOORD_1": 8
          },
          "indices": 9,
          "material": 1,
          "mode": 4
        }
      ]
    }
  ],
  "nodes": [
    {
      "children": [
        1
      ],
      "matrix": [
        1.0,
        0.0,
        0.0,
        0.0,
        0.0,
        2.220446049250313e-16,
        -1.0,
        0.0,
        0.0,
        1.0,
        2.220446049250313e-16,
        0.0,
        0.0,
        0.0,
        0.0,
        1.0
      ],
      "name": "Sketchfab_model"
    },
    {
      "children": [
        2
      ],
      "matrix": [
        0.009999999776482582,
        0.0,
        0.0,
        0.0,
        0.0,
        0.0,
        0.009999999776482582,
        0.0,
        0.0,
        -0.009999999776482582,
        0.0,
        0.0,
        0.0,
        0.0,
        0.0,
        1.0
      ],
      "name": "00034e1dd5e04da9b9a1e56b51d9ae56.fbx"
    },
    {
      "children": [
        3
      ],
      "name": "RootNode"
    },
    {
      "children": [
        4,
        5
      ],
      "name": "Ice_Cream_Machine1"
    },
    {
      "mesh": 0,
      "name": "Ice_Cream_Machine1_ICeCream_Machine_0"
    },
    {
      "mesh": 1,
      "name": "Ice_Cream_Machine1_Screws_0"
    }
  ],
  "samplers": [
    {
      "magFilter": 9729,
      "minFilter": 9987,
      "wrapS": 10497,
      "wrapT": 10497
    }
  ],
  "scene": 0,
  "scenes": [
    {
      "name": "Sketchfab_Scene",
      "nodes": [
        0
      ]
    }
  ],
  "textures": [
    {
      "sampler": 0,
      "source": 0
    },
    {
      "sampler": 0,
      "source": 1
    }
  ]
}
